<?xml version="1.0" standalone="no"?>
<!DOCTYPE svg PUBLIC "-//W3C//DTD SVG 20010904//EN"
 "http://www.w3.org/TR/2001/REC-SVG-20010904/DTD/svg10.dtd">
<svg version="1.0" xmlns="http://www.w3.org/2000/svg"
 width="512.000000pt" height="512.000000pt" viewBox="0 0 512.000000 512.000000"
 preserveAspectRatio="xMidYMid meet">

<g transform="translate(0.000000,512.000000) scale(0.100000,-0.100000)"
fill="#000000" stroke="none">
<path d="M2812 4793 c-109 -53 -110 -221 -2 -275 49 -25 110 -23 150 5 55 37
75 72 75 132 0 60 -20 95 -75 133 -40 26 -100 29 -148 5z"/>
<path d="M1785 4490 c-359 -47 -645 -300 -736 -650 -22 -81 -23 -107 -26 -610
l-4 -525 205 205 206 205 0 270 c0 371 19 445 139 566 99 98 210 139 384 139
l98 0 -54 53 c-78 76 -110 149 -115 265 -4 77 -7 92 -21 91 -9 -1 -43 -5 -76
-9z"/>
<path d="M3888 4413 c-6 -128 -52 -220 -145 -295 l-36 -28 102 0 c241 0 391
-84 480 -270 l36 -75 3 -1454 2 -1453 31 -40 c44 -55 69 -127 69 -198 l0 -60
73 0 c41 0 94 -6 119 -14 l46 -13 25 76 c14 42 31 105 37 141 8 46 10 495 8
1560 l-3 1495 -23 75 c-72 235 -226 426 -432 533 -97 52 -190 82 -275 92 -33
3 -72 8 -86 11 l-27 5 -4 -88z"/>
<path d="M1149 2188 c-26 -16 -65 -32 -88 -35 l-41 -6 0 -323 c0 -178 3 -324
8 -324 4 0 96 92 205 204 251 260 245 234 80 397 l-118 116 -46 -29z"/>
<path d="M1238 835 l-186 -185 9 -37 c6 -21 30 -79 55 -129 107 -218 313 -386
559 -456 80 -22 84 -22 905 -26 l825 -3 -48 30 c-107 69 -153 209 -110 340 19
60 78 133 123 151 16 7 30 16 30 21 0 11 -122 11 -281 0 -100 -7 -123 -12
-169 -37 -29 -16 -65 -43 -79 -61 l-26 -33 -491 0 c-292 0 -513 4 -545 10
-168 32 -314 166 -359 330 -7 25 -16 95 -19 157 l-6 112 -187 -184z"/>
</g>
</svg>
